<svg xmlns="http://www.w3.org/2000/svg" xml:space="preserve" viewBox="0 0 24 24">
  <rect width="24" height="24" rx="3.461" ry="3.461"/>
  <path fill="#fff" d="M18.21 12a5.378 5.378 0 0 0-2.689-1.345c-2.285-.403-5.647-.672-5.647-2.151 0-1.076 1.345-1.21 2.151-1.21.673 0 1.345.134 1.614.403.403.269.672.672.672 1.344h4.572a4.571 4.571 0 0 0-1.345-3.226c-1.344-1.345-3.496-1.748-5.647-1.748-1.882 0-4.302.403-5.647 1.748-.807.672-1.345 1.613-1.345 2.958 0 1.613.538 2.689 1.345 3.226 1.479 1.076 3.9 1.345 5.781 1.748.942.27 2.42.538 2.42 1.748.015.232-.032.464-.134.673-.403.672-1.344.94-2.151.94a3.227 3.227 0 0 1-1.882-.537l-.538-.538c-.27-.269-.404-.807-.404-1.344H4.631l.134 1.344c.807 3.227 4.034 4.034 7.395 4.034 3.092 0 6.454-.941 7.126-4.034A4.034 4.034 0 0 0 18.21 12"/>
</svg>
